<?xml version="1.0" encoding="utf-8"?>
<!-- Generator: Adobe Illustrator 17.0.0, SVG Export Plug-In . SVG Version: 6.00 Build 0)  -->
<!DOCTYPE svg PUBLIC "-//W3C//DTD SVG 1.1//EN" "http://www.w3.org/Graphics/SVG/1.1/DTD/svg11.dtd">
<svg version="1.1" id="Layer_1" xmlns="http://www.w3.org/2000/svg" xmlns:xlink="http://www.w3.org/1999/xlink" x="0px" y="0px"
	 width="433.478px" height="112.494px" viewBox="0 0 433.478 112.494" enable-background="new 0 0 433.478 112.494"
	 xml:space="preserve">
<g>
	<path fill="none" stroke="#000000" stroke-width="4" stroke-linecap="round" stroke-linejoin="round" stroke-miterlimit="10" d="
		M29.126,37.283c15.569,6,46.137,64.497,46.137,64.497"/>
	<path fill="none" stroke="#000000" stroke-width="4" stroke-linecap="round" stroke-linejoin="round" stroke-miterlimit="10" d="
		M54.195,60.733c0,0-16.561-20.95-18.6-50.948C35.595,9.785,52.334,14.186,54.195,60.733z"/>
	<path fill="none" stroke="#000000" stroke-width="4" stroke-linecap="round" stroke-linejoin="round" stroke-miterlimit="10" d="
		M54.195,60.733c0,0-20.699-18.95-45.668-15.95C8.527,44.783,25.836,63.183,54.195,60.733z"/>
	<path fill="none" stroke="#000000" stroke-width="4" stroke-linecap="round" stroke-linejoin="round" stroke-miterlimit="10" d="
		M64.068,81.757c0,0-5.199-12.975-6.106-59.473C57.962,22.284,74.081,49.735,64.068,81.757z"/>
	<path fill="none" stroke="#000000" stroke-width="4" stroke-linecap="round" stroke-linejoin="round" stroke-miterlimit="10" d="
		M64.068,81.757c0,0-9.872-15.975-45.941-12.225C18.127,69.532,35.083,82.733,64.068,81.757z"/>
	<path fill="none" stroke="#000000" stroke-width="4" stroke-linecap="round" stroke-linejoin="round" stroke-miterlimit="10" d="
		M70.126,92.335c0,0-44.428-6.445-51.998,0C18.127,92.335,39.698,100.889,70.126,92.335z"/>
	<path fill="none" stroke="#000000" stroke-width="4" stroke-linecap="round" stroke-linejoin="round" stroke-miterlimit="10" d="
		M70.126,92.335c0,0,1.957-17.553,7.192-55.052C77.318,37.283,92.196,76.89,70.126,92.335z"/>
</g>
<g>
	<g>
		<path stroke="#000000" stroke-width="2" stroke-linecap="round" stroke-linejoin="round" stroke-miterlimit="10" d="
			M127.949,48.067c0.359-1.04,1.553-1.89,2.653-1.89h2.984c1.1,0,2.294,0.851,2.653,1.89l7.694,22.283
			c0.359,1.04,0.906,1.027,1.215-0.029l6.508-22.225c0.309-1.056,1.462-1.919,2.562-1.919h3.128c1.1,0,1.722,0.856,1.383,1.902
			l-9.998,30.827c-0.339,1.046-1.517,1.902-2.617,1.902h-2.984c-1.1,0-2.297-0.85-2.66-1.888l-7.895-22.576
			c-0.363-1.038-0.951-1.036-1.307,0.005l-7.707,22.566c-0.356,1.041-1.546,1.893-2.646,1.893h-3.128c-1.1,0-2.281-0.855-2.624-1.9
			l-10.128-30.832c-0.343-1.045,0.276-1.9,1.376-1.9h3.416c1.1,0,2.257,0.862,2.572,1.917l6.632,22.23
			c0.314,1.054,0.866,1.066,1.225,0.026L127.949,48.067z"/>
		<path stroke="#000000" stroke-width="2" stroke-linecap="round" stroke-linejoin="round" stroke-miterlimit="10" d="
			M167.877,36.492c-0.936-0.936-1.404-2.075-1.404-3.42c0-1.343,0.468-2.495,1.404-3.456c0.936-0.959,2.076-1.439,3.42-1.439
			c1.343,0,2.496,0.468,3.456,1.404c0.96,0.936,1.44,2.1,1.44,3.491c0,1.345-0.48,2.484-1.44,3.42
			c-0.96,0.937-2.113,1.404-3.456,1.404C169.953,37.897,168.813,37.429,167.877,36.492z M174.682,78.809c0,1.1-0.9,2-2,2h-2.696
			c-1.1,0-2-0.9-2-2V48.177c0-1.1,0.9-2,2-2h2.696c1.1,0,2,0.9,2,2V78.809z"/>
		<path stroke="#000000" stroke-width="2" stroke-linecap="round" stroke-linejoin="round" stroke-miterlimit="10" d="
			M184.761,71.809l4.234-1.494c1.037-0.366,2.151,0.194,2.476,1.245c0,0,0.466,1.509,1.858,2.733
			c1.392,1.224,3.264,1.836,5.616,1.836c1.824,0,3.264-0.443,4.32-1.332c1.055-0.888,1.584-1.98,1.584-3.276
			c0-2.304-1.488-3.791-4.464-4.464l-3.95-0.867c-1.074-0.236-2.8-0.734-3.835-1.106c0,0-2.919-1.051-4.455-2.779
			c-1.537-1.729-2.304-3.816-2.304-6.264c0-2.976,1.211-5.544,3.636-7.704c2.423-2.16,5.316-3.24,8.676-3.24
			c2.207,0,4.176,0.324,5.904,0.972c1.728,0.648,3.071,1.501,4.032,2.557c0.959,1.056,1.68,2.04,2.16,2.951
			c0.479,0.913,0.839,1.849,1.08,2.809l-4.102,1.532c-1.031,0.385-1.993,0.187-2.138-0.44c0,0,0,0-0.24-0.552
			c-0.241-0.552-0.612-1.163-1.116-1.836c-0.504-0.672-1.236-1.212-2.196-1.62c-0.96-0.407-2.088-0.612-3.384-0.612
			c-1.681,0-3.06,0.457-4.14,1.368c-1.08,0.912-1.62,1.992-1.62,3.24c0,2.208,1.32,3.6,3.96,4.176l3.662,0.798
			c1.075,0.234,2.803,0.724,3.841,1.088c0,0,3.549,1.246,5.205,3.046c1.656,1.801,2.484,3.996,2.484,6.588
			c0,2.736-1.116,5.209-3.348,7.416c-2.232,2.209-5.34,3.312-9.324,3.312c-4.272,0-7.608-1.068-10.008-3.204
			C186.464,76.55,185.096,74.257,184.761,71.809z"/>
		<path stroke="#000000" stroke-width="2" stroke-linecap="round" stroke-linejoin="round" stroke-miterlimit="10" d="
			M229.416,35.233c1.1,0,2,0.9,2,2v6.944c0,1.1,0.9,2,2,2h3.488c1.1,0,2,0.9,2,2v2.12c0,1.1-0.9,2-2,2h-3.488c-1.1,0-2,0.9-2,2v14
			c0,1.1,0.117,2.892,0.26,3.983c0,0,0.111,0.849,0.856,1.617c0.743,0.769,1.979,1.152,3.708,1.152c1.008,0,1.896-0.096,2.664-0.288
			v3.76c0,1.1-0.875,2.211-1.944,2.469c0,0-0.745,0.18-2.664,0.18c-2.977,0-5.328-0.864-7.056-2.593
			c-1.728-1.728-2.592-4.15-2.592-7.271V54.297c0-1.1-0.9-2-2-2h-2.624c-1.1,0-2-0.9-2-2v-2.12c0-1.1,0.421-2,0.936-2
			s1.825-0.141,2.911-0.313c0,0,1.132-0.179,2.021-1.164c0.888-0.982,1.332-2.268,1.332-3.852v-3.616c0-1.1,0.9-2,2-2H229.416z"/>
		<path stroke="#000000" stroke-width="2" stroke-linecap="round" stroke-linejoin="round" stroke-miterlimit="10" d="
			M256.399,78.809c0,1.1-0.9,2-2,2h-2.696c-1.1,0-2-0.9-2-2V30.681c0-1.1,0.9-2,2-2h2.696c1.1,0,2,0.9,2,2v18.392
			c0,1.1,0.548,1.286,1.217,0.413c0,0,1.147-1.496,3.139-2.625c1.992-1.127,4.356-1.691,7.093-1.691
			c5.04,0,8.951,1.704,11.735,5.111c2.783,3.409,4.177,7.753,4.177,13.032c0,5.328-1.44,9.732-4.32,13.212
			c-2.88,3.48-6.816,5.22-11.808,5.22c-5.185,0-8.929-1.991-11.232-5.976V78.809z M274.039,72.313c1.872-2.256,2.809-5.256,2.809-9
			s-0.925-6.707-2.772-8.892c-1.849-2.184-4.332-3.276-7.452-3.276c-3.023,0-5.496,1.104-7.416,3.312s-2.88,5.16-2.88,8.855
			c0,3.697,0.96,6.685,2.88,8.964c1.92,2.28,4.393,3.42,7.416,3.42C269.694,75.696,272.167,74.569,274.039,72.313z"/>
		<path stroke="#000000" stroke-width="2" stroke-linecap="round" stroke-linejoin="round" stroke-miterlimit="10" d="
			M318.534,68.929l3.942,1.362c1.04,0.359,1.493,1.461,1.006,2.447c0,0-1.996,4.051-4.732,6.09c-2.735,2.04-6.048,3.061-9.936,3.061
			c-4.849,0-8.964-1.667-12.348-5.004c-3.385-3.336-5.076-7.836-5.076-13.5c0-5.28,1.631-9.648,4.896-13.104
			c3.264-3.456,7.152-5.184,11.664-5.184c5.231,0,9.312,1.645,12.24,4.932c2.928,3.289,4.392,7.693,4.392,13.212
			c0,0.864-0.048,1.584-0.144,2.16h-24.064c-1.1,0-1.831,0.884-1.625,1.964c0,0,0.693,3.628,2.685,5.596
			c1.991,1.969,4.451,2.951,7.38,2.951C313.758,75.912,316.998,73.585,318.534,68.929z M298.591,59.929h16.936
			c1.1,0,1.82-0.882,1.601-1.96c0,0-0.562-2.756-2.192-4.412c-1.633-1.656-3.937-2.484-6.912-2.484
			c-2.688,0-4.896,0.877-6.624,2.628C299.671,55.453,298.734,57.529,298.591,59.929z"/>
		<path stroke="#000000" stroke-width="2" stroke-linecap="round" stroke-linejoin="round" stroke-miterlimit="10" d="
			M354.247,45.817v5.2c0,1.1-0.895,1.903-1.988,1.785c0,0-0.005-0.001-0.964-0.001c-6.336,0-9.504,3.553-9.504,10.656v15.352
			c0,1.1-0.9,2-2,2h-2.769c-1.1,0-2-0.9-2-2V48.177c0-1.1,0.9-2,2-2h2.624c1.1,0,2,0.9,2,2v2.048c0,1.1,0.579,1.311,1.287,0.469
			c0,0,4.281-5.093,9.081-5.093C352.782,45.601,353.526,45.673,354.247,45.817z"/>
		<path stroke="#000000" stroke-width="2" stroke-linecap="round" stroke-linejoin="round" stroke-miterlimit="10" d="
			M382.47,45.817v5.2c0,1.1-0.895,1.903-1.988,1.785c0,0-0.005-0.001-0.964-0.001c-6.336,0-9.504,3.553-9.504,10.656v15.352
			c0,1.1-0.9,2-2,2h-2.769c-1.1,0-2-0.9-2-2V48.177c0-1.1,0.9-2,2-2h2.624c1.1,0,2,0.9,2,2v2.048c0,1.1,0.579,1.311,1.287,0.469
			c0,0,4.281-5.093,9.081-5.093C381.005,45.601,381.749,45.673,382.47,45.817z"/>
		<path stroke="#000000" stroke-width="2" stroke-linecap="round" stroke-linejoin="round" stroke-miterlimit="10" d="
			M400.943,93.463c-0.459,1-1.734,1.818-2.834,1.818h-3.416c-1.1,0-1.616-0.814-1.146-1.808l6.931-14.671
			c0.47-0.995,0.462-2.619-0.017-3.609l-13.163-27.215c-0.479-0.99,0.029-1.8,1.129-1.8h3.776c1.1,0,2.371,0.82,2.823,1.823
			l9.153,20.259c0.453,1.002,1.182,0.997,1.619-0.012l8.776-20.235c0.438-1.009,1.696-1.835,2.796-1.835h3.271
			c1.1,0,1.625,0.818,1.166,1.818L400.943,93.463z"/>
	</g>
</g>
</svg>
