<?xml version="1.0" encoding="UTF-8"?>
<svg width="1673px" height="161px" viewBox="0 0 1673 161" version="1.1" xmlns="http://www.w3.org/2000/svg" xmlns:xlink="http://www.w3.org/1999/xlink">
    <!-- Generator: Sketch 47.1 (45422) - http://www.bohemiancoding.com/sketch -->
    <title>logo-alt-square</title>
    <desc>Created with Sketch.</desc>
    <defs></defs>
    <g id="Page-1" stroke="none" stroke-width="1" fill="none" fill-rule="evenodd">
        <g id="logo-alt-square" fill-rule="nonzero">
            <path d="M182.701811,0.695333529 C184.249686,-0.409217709 186.902112,-0.304022353 187.52577,1.78485686 C189.479398,10.2380551 184.843288,18.1352208 183.633542,26.3254306 C182.581588,27.6253447 181.63483,29.0529959 181.364328,30.7361216 C180.214693,36.1236267 177.464585,41.0302386 176.472743,46.4628274 C175.601125,51.3769533 174.226071,56.1858838 172.370125,60.8144795 C171.318171,66.5175706 172.603057,72.3934826 171.799064,78.1191156 C170.529206,83.6944694 166.98262,88.3531209 163.67648,92.8840352 C161.422294,96.1300633 158.018472,98.3767356 155.899537,101.735473 C153.720491,105.041613 151.729293,108.467976 149.452565,111.714004 C148.137623,113.231823 148.716197,115.358272 148.513321,117.184162 C148.475751,123.961749 147.769439,130.739335 148.0174,137.516922 C148.400611,139.778622 148.453209,142.228171 149.640414,144.241911 C152.247756,146.150455 155.366047,147.405285 157.605205,149.809751 C159.228219,151.50039 158.296489,154.430832 156.342861,155.445216 C152.984123,157.331219 149.039297,156.219153 145.492711,155.648093 C142.592325,154.949295 139.278671,153.844744 137.933673,150.921816 C135.604348,145.677076 133.808513,140.15432 132.92938,134.481285 C132.28318,128.612886 131.449131,122.752002 129.826117,117.063939 C129.277598,122.872226 129.149861,128.800735 127.496791,134.443715 C125.963945,139.47055 123.108642,144.046548 119.471888,147.818553 C120.726719,149.065869 122.372275,150.53109 121.974035,152.522288 C121.590823,156.038819 117.450635,156.609879 114.670472,157.173426 C107.088892,157.992447 99.3269777,158.706272 91.7829679,157.188454 C85.7567768,157.248565 79.7456136,158.781412 73.7194225,157.579179 C69.4815524,158.36063 65.3188219,159.788282 60.9532146,159.780768 C53.9577235,160.674928 46.9246625,159.855907 39.9141434,159.645517 C30.6344102,158.773898 20.9789793,157.601721 12.8037974,152.755221 C6.7099807,149.208634 1.80336873,143.069734 1.06700124,135.893908 C-1.05944774,122.51907 7.15330398,107.71658 20.4830584,103.959603 C24.6758447,102.456813 29.8830148,103.621475 32.3926755,107.483648 C29.0564799,110.481715 24.2475493,108.422892 20.4980863,110.37652 C15.1256092,112.848611 11.9772625,118.469049 10.6923763,124.029375 C9.78318789,128.425038 9.04682039,133.158829 10.8201135,137.449296 C12.5858927,142.213143 17.1694047,145.233753 21.8205422,146.759085 C30.5742986,149.712069 39.9291713,148.862993 48.9909999,149.682014 C53.4242327,150.155393 57.8048679,148.622546 61.4566496,146.188025 C62.5161171,145.459171 63.4027637,144.42976 63.8235451,143.197471 C66.5586243,132.24964 66.280608,120.843458 65.3939615,109.670208 C66.288122,95.9797842 73.7419644,83.5892741 82.9991557,73.8361618 C88.6271072,68.0203614 95.3220403,63.0536378 103.031357,60.401212 C108.531571,58.5152096 113.949132,56.2685373 119.704821,55.2992373 C123.514396,54.3975628 127.143635,52.8121185 130.63011,51.0463393 C133.470385,49.6787997 135.371415,47.1015135 137.693227,45.0652319 C139.744536,43.1491736 142.08889,41.5562154 143.944837,39.4297664 C145.943548,37.0027593 145.372488,33.6515358 145.417572,30.7436356 C145.545309,28.3091145 143.847155,26.3254306 143.426374,23.9961049 C142.562269,19.5102744 141.893527,14.9793601 140.533501,10.6062389 C139.624313,7.44286422 139.075794,3.22753603 141.983695,0.920752149 C148.182707,3.74599885 151.150718,10.7189482 157.13934,13.8823228 C160.933887,14.0401158 164.720919,13.1835251 168.507952,13.9724903 C173.722636,10.1103179 177.261709,4.3095454 182.701811,0.695333529 Z" id="Shape" fill="#1E1E1E"></path>
            <path d="M1538.88908,41.9041368 C1546.00734,39.8026302 1554.27906,41.3827104 1559.80144,46.4547677 C1565.37122,51.5347255 1569.05281,58.2342655 1574.02216,63.8435501 C1577.33243,67.4698341 1581.67765,69.911058 1585.26443,73.2450271 C1591.03963,78.5303953 1596.85432,83.7762615 1602.82702,88.8404185 C1607.35395,92.7985193 1611.96779,96.7171181 1617.14255,99.8140753 C1626.38602,105.763077 1636.77505,109.515768 1646.59525,114.374514 C1648.98117,115.709682 1652.02282,116.531324 1653.35009,119.154257 C1648.02522,119.983799 1642.62134,119.359667 1637.26487,119.636181 C1647.89091,127.141562 1659.33069,133.430281 1670.00413,140.872459 C1670.87318,141.543993 1671.65532,142.310332 1672.36635,143.171475 C1669.61701,143.171475 1666.95458,142.515742 1664.30004,141.923212 C1646.42934,137.830804 1628.62973,133.248572 1610.43511,130.807348 C1605.38675,130.230619 1600.4253,129.053459 1595.35324,128.705841 C1591.95607,128.28712 1592.4775,132.995759 1590.28909,134.520536 C1585.83326,137.901908 1579.68675,138.810454 1576.12367,143.424288 C1575.58644,144.016818 1575.60224,145.668002 1576.7241,145.581098 C1580.20028,146.142026 1584.16628,144.751556 1587.24743,146.979469 C1588.83541,147.903815 1589.31734,149.76831 1589.81506,151.403693 C1587.59505,150.345039 1585.24073,149.207382 1582.7363,150.021123 C1579.33123,150.858565 1575.90246,150.187031 1572.56059,149.539198 C1566.7854,152.557152 1559.89625,150.992872 1554.07365,153.884419 C1554.49237,152.541351 1554.46867,150.763761 1555.89864,150.013222 C1557.41552,149.128378 1559.12991,148.630652 1560.75739,147.951218 C1555.87494,148.085525 1550.96089,148.496346 1546.24435,149.807812 C1546.83688,148.061823 1547.70593,146.070922 1549.68103,145.557396 C1555.83544,143.890412 1562.36907,144.261731 1568.56299,142.68165 C1572.43418,141.796806 1574.33818,137.870306 1575.83135,134.567939 C1577.67215,128.618937 1573.91946,122.56723 1568.98171,119.438671 C1560.21226,113.371163 1551.79043,106.276603 1546.61567,96.772421 C1543.06049,91.0051283 1540.42176,84.653206 1539.03129,78.0089689 C1538.47826,75.2043265 1537.76722,72.4233854 1536.79547,69.7293487 C1534.89938,70.8828073 1534.28315,72.8026047 1534.74137,74.9515137 C1532.74257,73.1818239 1530.51465,71.3805325 1529.66931,68.7417986 C1528.37365,64.8231998 1529.4165,60.6438877 1530.83857,56.9148985 C1528.90297,50.8236894 1532.66356,43.5948226 1538.88908,41.9041368 Z" id="Shape" fill="#1E1E1E"></path>
            <path d="M396.39,6.11 C402.38,5.95 408.37,6.03 414.35,6.04 C407.62,14.02 400.84,21.95 394.1,29.92 C388.45,29.89 382.79,29.93 377.14,29.89 C383.54,21.94 390.03,14.08 396.39,6.11 Z" id="Shape" fill="#1E1E1E"></path>
            <path d="M485.59,35.85 C500.82,33.36 517.21,35.92 530.13,44.65 C542.32,52.66 550.72,65.88 553.49,80.14 C556.65,95.81 554.19,112.9 545.4,126.4 C538.19,137.55 526.75,145.81 513.94,149.27 C496.75,154.03 477.3,151.64 462.47,141.44 C451.42,133.88 443.57,122.04 440.4,109.07 C436.18,91.67 438.89,72.17 449.63,57.57 C458.06,45.87 471.42,38.12 485.59,35.85 Z" id="Shape" fill="#1E1E1E"></path>
            <path d="M814,49.93 C828.39,36.9 849.27,32.46 868.06,36.24 C881.43,38.87 893.16,47.3 900.94,58.35 C895.58,61.57 890.1,64.57 884.76,67.8 C879.86,61.55 873.28,56.49 865.59,54.25 C852.56,50.26 837.47,53.96 827.78,63.56 C811.1,80.2 812.2,111.39 830.88,126.13 C845.46,137.97 868.29,136.7 882.1,124.24 C882.05,118.42 882.09,112.6 882.08,106.78 C870.72,106.77 859.37,106.8 848.02,106.76 C847.85,100.93 848,95.09 848.05,89.26 C865.97,89.24 883.89,89.24 901.81,89.26 C901.78,103.43 901.82,117.59 901.79,131.76 C891.59,142.97 877.35,150.57 862.18,151.91 C857.61,152.73 852.97,152.76 848.41,151.94 C833.62,150.66 819.2,143.83 809.45,132.54 C789.38,109.55 790.97,70.37 814,49.93 Z" id="Shape" fill="#1E1E1E"></path>
            <path d="M1062.68,35.93 C1076.56,33.6 1091.39,35.32 1103.79,42.23 C1116.38,49.06 1125.87,61.16 1129.83,74.9 C1135.09,92.59 1132.59,112.82 1121.92,128.06 C1114.05,139.39 1101.63,147.28 1088.18,150.11 C1071.75,153.67 1053.63,150.95 1039.75,141.19 C1028.06,133.06 1020.05,120.11 1017.41,106.17 C1014.3,90.19 1016.89,72.75 1026.15,59.16 C1034.42,46.76 1048.06,38.41 1062.68,35.93 Z" id="Shape" fill="#1E1E1E"></path>
            <path d="M1294.86,37.42 C1309.84,33.33 1326.67,33.98 1340.45,41.61 C1347.85,45.59 1353.88,51.65 1358.86,58.34 C1353.5,61.56 1348.02,64.56 1342.68,67.8 C1337.8,61.64 1331.35,56.6 1323.75,54.33 C1310.4,50.12 1294.85,54.06 1285.11,64.12 C1269.38,80.61 1270.25,110.3 1287.71,125.25 C1302.21,137.98 1325.83,137.03 1340,124.25 C1339.89,118.43 1339.99,112.6 1339.93,106.78 C1328.58,106.78 1317.24,106.78 1305.9,106.77 C1305.87,100.93 1305.87,95.09 1305.9,89.25 C1323.84,89.25 1341.79,89.23 1359.74,89.26 C1359.68,103.43 1359.76,117.59 1359.7,131.76 C1349.47,142.96 1335.22,150.63 1320.02,151.88 C1311.64,153.23 1303.07,151.92 1294.94,149.82 C1278.38,145.31 1264.05,132.94 1257.78,116.89 C1251.68,101.31 1251.95,83.21 1258.75,67.9 C1265.38,52.96 1279.15,41.68 1294.86,37.42 Z" id="Shape" fill="#1E1E1E"></path>
            <path d="M258,36.41 C264.63,36.4 271.25,36.39 277.88,36.41 C277.84,68.46 277.82,100.52 277.89,132.57 C294.66,132.64 311.43,132.55 328.2,132.62 C328.19,138.45 328.19,144.27 328.19,150.1 C304.8,150.12 281.4,150.11 258,150.11 L258,36.41 Z" id="Shape" fill="#1E1E1E"></path>
            <path d="M344.65,36.41 C370.64,36.33 396.64,36.38 422.64,36.38 C422.6,42.2 422.61,48.03 422.63,53.85 C403.32,53.89 384.02,53.87 364.71,53.86 C364.67,63.73 364.72,73.6 364.68,83.47 C383.6,83.49 402.52,83.44 421.43,83.49 C421.38,89.37 421.44,95.25 421.39,101.13 C402.49,101.11 383.59,101.16 364.7,101.11 C364.68,111.6 364.72,122.09 364.68,132.59 C383.98,132.6 403.29,132.61 422.6,132.58 C422.64,138.41 422.6,144.25 422.63,150.08 C396.64,150.15 370.66,150.09 344.67,150.11 C344.66,112.21 344.7,74.31 344.65,36.41 Z" id="Shape" fill="#1E1E1E"></path>
            <path d="M573.47,36.43 C580.28,36.36 587.09,36.44 593.9,36.37 C613.31,62.53 632.68,88.72 651.9,115.01 C652.24,88.81 651.98,62.6 652.04,36.4 C658.7,36.41 665.36,36.36 672.03,36.43 C672.44,54.94 671.8,73.46 672.15,91.96 C671.94,111.34 672.23,130.71 672.14,150.09 C665.68,150.13 659.22,150.09 652.75,150.12 C632.91,123.14 613.34,95.95 593.46,69 C593.51,96.04 593.46,123.08 593.48,150.11 C586.82,150.11 580.16,150.11 573.5,150.11 C573.49,112.22 573.54,74.32 573.47,36.43 Z" id="Shape" fill="#1E1E1E"></path>
            <path d="M923.15,36.38 C949.08,36.36 975.01,36.36 1000.94,36.38 C1000.89,42.2 1000.9,48.02 1000.93,53.85 C981.65,53.9 962.37,53.86 943.1,53.87 C943,63.73 943.14,73.59 943.02,83.46 C961.94,83.5 980.85,83.45 999.77,83.48 C999.71,89.36 999.78,95.24 999.72,101.12 C980.83,101.14 961.95,101.13 943.06,101.12 C943.07,111.62 943.06,122.11 943.06,132.61 C962.36,132.59 981.65,132.58 1000.94,132.61 C1000.86,138.44 1000.89,144.27 1001.11,150.1 C975.13,150.13 949.15,150.1 923.16,150.11 C923.17,112.2 923.2,74.29 923.15,36.38 Z" id="Shape" fill="#1E1E1E"></path>
            <path d="M1151.61,36.4 C1168.41,36.34 1185.22,36.37 1202.02,36.38 C1212.16,36.33 1222.69,39.73 1229.82,47.17 C1240.07,57.92 1241.77,75.23 1235.5,88.41 C1231.12,97.58 1221.88,103.65 1212.04,105.47 C1221.48,120.28 1230.66,135.24 1240.01,150.11 C1232.3,150.03 1224.58,150.27 1216.88,150.01 C1209.58,138.54 1202.99,126.59 1195.96,114.95 C1194.34,112.52 1193.3,109.58 1191.15,107.6 C1184.65,107.42 1178.15,107.63 1171.65,107.53 C1171.65,121.72 1171.63,135.91 1171.66,150.1 C1164.98,150.13 1158.3,150.11 1151.63,150.11 C1151.63,112.2 1151.66,74.3 1151.61,36.4 Z" id="Shape" fill="#1E1E1E"></path>
            <path d="M1380.86,36.41 C1406.91,36.35 1432.95,36.32 1459,36.43 L1459,36.85 C1458.74,42.52 1458.85,48.19 1458.86,53.86 C1439.55,53.91 1420.25,53.86 1400.95,53.87 C1400.93,63.74 1400.95,73.6 1400.94,83.47 C1419.86,83.48 1438.77,83.46 1457.69,83.48 C1457.63,89.35 1457.68,95.23 1457.65,101.1 C1438.75,101.16 1419.85,101.11 1400.95,101.13 C1400.94,111.62 1400.92,122.11 1400.96,132.6 C1420.26,132.59 1439.56,132.59 1458.87,132.6 C1458.83,138.44 1458.84,144.27 1458.85,150.11 C1432.85,150.1 1406.85,150.13 1380.85,150.1 C1380.86,112.2 1380.83,74.31 1380.86,36.41 Z" id="Shape" fill="#1E1E1E"></path>
            <path d="M712.28,44.21 C719.43,37.07 730.44,34.98 740.07,37.22 C747.17,38.87 753.44,43.81 756.6,50.38 C759.92,57.28 759.39,65.83 755.32,72.3 C751.22,79.06 744.46,83.6 737.68,87.35 C744.18,95.99 750.94,104.45 757.84,112.77 C760.11,107.83 761.78,102.64 762.95,97.33 C767.81,98.29 772.67,99.26 777.46,100.52 C775.1,108.97 772.02,117.24 767.53,124.82 C772.57,131.04 778.55,136.38 784.84,141.3 C781.71,144.49 779.06,148.12 775.83,151.21 C768.89,148.27 763.95,141.89 758.45,136.86 C752,143.93 743.48,149.28 733.96,150.92 C724.94,152.42 715.2,151.52 707.18,146.9 C698.61,141.83 692.18,132.91 690.89,122.95 C689.77,114.97 692.22,106.61 697.35,100.42 C702.56,93.91 709.79,89.49 717.15,85.81 C712.69,80.01 707.49,74.38 705.59,67.12 C703.18,58.99 706.11,49.87 712.28,44.21 Z" id="Shape" fill="#8D8D8D"></path>
            <path d="M719.23,57.91 C720.55,48.91 732.62,45.18 739.56,50.4 C745.69,54.66 746.03,64.06 741.72,69.72 C738.71,73.53 734.48,76.11 730.27,78.38 C725.53,72.34 717.85,66.53 719.23,57.91 Z" id="Shape" fill="#FFFFFF"></path>
            <path d="M490.09,53.18 C501.51,51.28 514.01,54.4 522.42,62.57 C534.05,74.03 536.87,92.33 532.2,107.58 C529.23,117.48 522.16,126.3 512.62,130.52 C497.61,137.24 477.85,133.76 467.67,120.34 C460.55,111.26 458.17,99.21 459.31,87.9 C460.22,78.1 464.35,68.37 471.76,61.75 C476.83,57.13 483.33,54.22 490.09,53.18 Z" id="Shape" fill="#FFFFFF"></path>
            <path d="M1065.43,53.63 C1077.11,51 1090.27,53.62 1099.21,61.84 C1111.7,73.13 1114.44,92.1 1109.81,107.69 C1107.01,116.74 1100.95,124.95 1092.48,129.41 C1084.45,133.87 1074.84,134.64 1065.92,133.02 C1056.02,131.07 1047.18,124.62 1042.28,115.81 C1035.64,103.93 1034.99,89.12 1039.57,76.41 C1043.59,65.06 1053.54,55.96 1065.43,53.63 Z" id="Shape" fill="#FFFFFF"></path>
            <path d="M1171.66,53.86 C1180.43,53.9 1189.2,53.83 1197.97,53.89 C1203.33,53.95 1209.05,55.03 1213.08,58.84 C1220.75,65.55 1220.38,79.09 1212.52,85.52 C1208.82,88.67 1203.86,89.96 1199.07,89.95 C1189.93,89.99 1180.79,89.94 1171.65,89.96 C1171.65,77.93 1171.62,65.89 1171.66,53.86 Z" id="Shape" fill="#FFFFFF"></path>
            <path d="M706.62,112.36 C709.64,104.12 717.36,99.02 724.63,94.85 C732.96,105.3 741.33,115.73 749.74,126.12 C745.18,132.24 738.6,136.95 731.11,138.66 C724.6,140.14 717.01,138.72 712.41,133.6 C707.32,128.01 703.79,119.84 706.62,112.36 Z" id="Shape" fill="#FFFFFF"></path>
        </g>
    </g>
</svg>