<?xml version="1.0" encoding="UTF-8"?>
<svg width="1201px" height="147px" viewBox="0 0 1201 147" version="1.1" xmlns="http://www.w3.org/2000/svg" xmlns:xlink="http://www.w3.org/1999/xlink">
    <!-- Generator: Sketch 49.3 (51167) - http://www.bohemiancoding.com/sketch -->
    <title>logo-alt-square</title>
    <desc>Created with Sketch.</desc>
    <defs></defs>
    <g id="Page-1" stroke="none" stroke-width="1" fill="none" fill-rule="evenodd">
        <g id="logo-alt-square">
            <path d="M0,0 L1201,0 L1201,106.005287 C1174.95,105.966603 1148.91,105.977153 1122.86,105.998254 C1122.83,119.326722 1122.86,132.651675 1122.85,145.980144 C1148.85,145.990694 1174.85,145.980144 1200.85,145.98366 C1200.84,143.92988 1200.83,141.879617 1200.87,139.825837 C1181.56,139.822321 1162.26,139.822321 1142.96,139.825837 C1142.92,136.13677 1142.94,132.447703 1142.95,128.758636 C1161.85,128.751603 1180.75,128.769187 1199.65,128.748086 C1199.68,126.683756 1199.63,124.615909 1199.69,122.551579 C1180.77,122.544545 1161.86,122.551579 1142.94,122.548062 C1142.95,119.077033 1142.93,115.609522 1142.95,112.138493 C1162.25,112.134976 1181.55,112.15256 1200.86,112.134976 C1200.85,110.140981 1200.74,108.146986 1201,106.15299 L1201,147 L0,147 L0,145.98366 C23.4,145.98366 46.8,145.987177 70.19,145.980144 C70.19,143.92988 70.19,141.883134 70.2,139.832871 C53.43,139.808254 36.66,139.839904 19.89,139.815287 C19.82,128.544115 19.84,117.269426 19.88,105.998254 C13.25,105.99122 6.63,105.994737 0,105.998254 L0,0" id="Fill-1" fill="#FFFFFF"></path>
            <path d="M138.39,0.11 C144.38,-0.05 150.37,0.03 156.35,0.04 C149.62,8.02 142.84,15.95 136.1,23.92 C130.45,23.89 124.79,23.93 119.14,23.89 C125.54,15.94 132.03,8.08 138.39,0.11" id="Fill-4" fill="#1E1E1E"></path>
            <path d="M227.59,29.85 C242.82,27.36 259.21,29.92 272.13,38.65 C284.32,46.66 292.72,59.88 295.49,74.14 C298.65,89.81 296.19,106.9 287.4,120.4 C280.19,131.55 268.75,139.81 255.94,143.27 C238.75,148.03 219.3,145.64 204.47,135.44 C193.42,127.88 185.57,116.04 182.4,103.07 C178.18,85.67 180.89,66.17 191.63,51.57 C200.06,39.87 213.42,32.12 227.59,29.85" id="Fill-5" fill="#1E1E1E"></path>
            <path d="M556,43.93 C570.39,30.9 591.27,26.46 610.06,30.24 C623.43,32.87 635.16,41.3 642.94,52.35 C637.58,55.57 632.1,58.57 626.76,61.8 C621.86,55.55 615.28,50.49 607.59,48.25 C594.56,44.26 579.47,47.96 569.78,57.56 C553.1,74.2 554.2,105.39 572.88,120.13 C587.46,131.97 610.29,130.7 624.1,118.24 C624.05,112.42 624.09,106.6 624.08,100.78 C612.72,100.77 601.37,100.8 590.02,100.76 C589.85,94.93 590,89.09 590.05,83.26 C607.97,83.24 625.89,83.24 643.81,83.26 C643.78,97.43 643.82,111.59 643.79,125.76 C633.59,136.97 619.35,144.57 604.18,145.91 C599.61,146.73 594.97,146.76 590.41,145.94 C575.62,144.66 561.2,137.83 551.45,126.54 C531.38,103.55 532.97,64.37 556,43.93" id="Fill-6" fill="#1E1E1E"></path>
            <path d="M804.68,29.93 C818.56,27.6 833.39,29.32 845.79,36.23 C858.38,43.06 867.87,55.16 871.83,68.9 C877.09,86.59 874.59,106.82 863.92,122.06 C856.05,133.39 843.63,141.28 830.18,144.11 C813.75,147.67 795.63,144.95 781.75,135.19 C770.06,127.06 762.05,114.11 759.41,100.17 C756.3,84.19 758.89,66.75 768.15,53.16 C776.42,40.76 790.06,32.41 804.68,29.93" id="Fill-7" fill="#1E1E1E"></path>
            <path d="M1036.86,31.42 C1051.84,27.33 1068.67,27.98 1082.45,35.61 C1089.85,39.59 1095.88,45.65 1100.86,52.34 C1095.5,55.56 1090.02,58.56 1084.68,61.8 C1079.8,55.64 1073.35,50.6 1065.75,48.33 C1052.4,44.12 1036.85,48.06 1027.11,58.12 C1011.38,74.61 1012.25,104.3 1029.71,119.25 C1044.21,131.98 1067.83,131.03 1082,118.25 C1081.89,112.43 1081.99,106.6 1081.93,100.78 C1070.58,100.78 1059.24,100.78 1047.9,100.77 C1047.87,94.93 1047.87,89.09 1047.9,83.25 C1065.84,83.25 1083.79,83.23 1101.74,83.26 C1101.68,97.43 1101.76,111.59 1101.7,125.76 C1091.47,136.96 1077.22,144.63 1062.02,145.88 C1053.64,147.23 1045.07,145.92 1036.94,143.82 C1020.38,139.31 1006.05,126.94 999.78,110.89 C993.68,95.31 993.95,77.21 1000.75,61.9 C1007.38,46.96 1021.15,35.68 1036.86,31.42" id="Fill-8" fill="#1E1E1E"></path>
            <path d="M0,30.41 C6.63,30.4 13.25,30.39 19.88,30.41 C19.84,62.46 19.82,94.52 19.89,126.57 C36.66,126.64 53.43,126.55 70.2,126.62 C70.19,132.45 70.19,138.27 70.19,144.1 C46.8,144.12 23.4,144.11 0,144.11 L0,30.41" id="Fill-9" fill="#1E1E1E"></path>
            <path d="M86.65,30.41 C112.64,30.33 138.64,30.38 164.64,30.38 C164.6,36.2 164.61,42.03 164.63,47.85 C145.32,47.89 126.02,47.87 106.71,47.86 C106.67,57.73 106.72,67.6 106.68,77.47 C125.6,77.49 144.52,77.44 163.43,77.49 C163.38,83.37 163.44,89.25 163.39,95.13 C144.49,95.11 125.59,95.16 106.7,95.11 C106.68,105.6 106.72,116.09 106.68,126.59 C125.98,126.6 145.29,126.61 164.6,126.58 C164.64,132.41 164.6,138.25 164.63,144.08 C138.64,144.15 112.66,144.09 86.67,144.11 C86.66,106.21 86.7,68.31 86.65,30.41" id="Fill-10" fill="#1E1E1E"></path>
            <path d="M315.47,30.43 C322.28,30.36 329.09,30.44 335.9,30.37 C355.31,56.53 374.68,82.72 393.9,109.01 C394.24,82.81 393.98,56.6 394.04,30.4 C400.7,30.41 407.36,30.36 414.03,30.43 C414.44,48.94 413.8,67.46 414.15,85.96 C413.94,105.34 414.23,124.71 414.14,144.09 C407.68,144.13 401.22,144.09 394.75,144.12 C374.91,117.14 355.34,89.95 335.46,63 C335.51,90.04 335.46,117.08 335.48,144.11 C328.82,144.11 322.16,144.11 315.5,144.11 C315.49,106.22 315.54,68.32 315.47,30.43" id="Fill-11" fill="#1E1E1E"></path>
            <path d="M665.15,30.38 C691.08,30.36 717.01,30.36 742.94,30.38 C742.89,36.2 742.9,42.02 742.93,47.85 C723.65,47.9 704.37,47.86 685.1,47.87 C685,57.73 685.14,67.59 685.02,77.46 C703.94,77.5 722.85,77.45 741.77,77.48 C741.71,83.36 741.78,89.24 741.72,95.12 C722.83,95.14 703.95,95.13 685.06,95.12 C685.07,105.62 685.06,116.11 685.06,126.61 C704.36,126.59 723.65,126.58 742.94,126.61 C742.86,132.44 742.89,138.27 743.11,144.1 C717.13,144.13 691.15,144.1 665.16,144.11 C665.17,106.2 665.2,68.29 665.15,30.38" id="Fill-12" fill="#1E1E1E"></path>
            <path d="M893.61,30.4 C910.41,30.34 927.22,30.37 944.02,30.38 C954.16,30.33 964.69,33.73 971.82,41.17 C982.07,51.92 983.77,69.23 977.5,82.41 C973.12,91.58 963.88,97.65 954.04,99.47 C963.48,114.28 972.66,129.24 982.01,144.11 C974.3,144.03 966.58,144.27 958.88,144.01 C951.58,132.54 944.99,120.59 937.96,108.95 C936.34,106.52 935.3,103.58 933.15,101.6 C926.65,101.42 920.15,101.63 913.65,101.53 C913.65,115.72 913.63,129.91 913.66,144.1 C906.98,144.13 900.3,144.11 893.63,144.11 C893.63,106.2 893.66,68.3 893.61,30.4" id="Fill-13" fill="#1E1E1E"></path>
            <path d="M1122.86,30.41 C1148.91,30.35 1174.95,30.32 1201,30.43 L1201,30.85 C1200.74,36.52 1200.85,42.19 1200.86,47.86 C1181.55,47.91 1162.25,47.86 1142.95,47.87 C1142.93,57.74 1142.95,67.6 1142.94,77.47 C1161.86,77.48 1180.77,77.46 1199.69,77.48 C1199.63,83.35 1199.68,89.23 1199.65,95.1 C1180.75,95.16 1161.85,95.11 1142.95,95.13 C1142.94,105.62 1142.92,116.11 1142.96,126.6 C1162.26,126.59 1181.56,126.59 1200.87,126.6 C1200.83,132.44 1200.84,138.27 1200.85,144.11 C1174.85,144.1 1148.85,144.13 1122.85,144.1 C1122.86,106.2 1122.83,68.31 1122.86,30.41" id="Fill-14" fill="#1E1E1E"></path>
            <path d="M454.28,38.21 C461.43,31.07 472.44,28.98 482.07,31.22 C489.17,32.87 495.44,37.81 498.6,44.38 C501.92,51.28 501.39,59.83 497.32,66.3 C493.22,73.06 486.46,77.6 479.68,81.35 C486.18,89.99 492.94,98.45 499.84,106.77 C502.11,101.83 503.78,96.64 504.95,91.33 C509.81,92.29 514.67,93.26 519.46,94.52 C517.1,102.97 514.02,111.24 509.53,118.82 C514.57,125.04 520.55,130.38 526.84,135.3 C523.71,138.49 521.06,142.12 517.83,145.21 C510.89,142.27 505.95,135.89 500.45,130.86 C494,137.93 485.48,143.28 475.96,144.92 C466.94,146.42 457.2,145.52 449.18,140.9 C440.61,135.83 434.18,126.91 432.89,116.95 C431.77,108.97 434.22,100.61 439.35,94.42 C444.56,87.91 451.79,83.49 459.15,79.81 C454.69,74.01 449.49,68.38 447.59,61.12 C445.18,52.99 448.11,43.87 454.28,38.21" id="Fill-15" fill="#8D8D8D"></path>
            <path d="M461.23,51.91 C462.55,42.91 474.62,39.18 481.56,44.4 C487.69,48.66 488.03,58.06 483.72,63.72 C480.71,67.53 476.48,70.11 472.27,72.38 C467.53,66.34 459.85,60.53 461.23,51.91" id="Fill-16" fill="#FFFFFF"></path>
            <path d="M232.09,47.18 C243.51,45.28 256.01,48.4 264.42,56.57 C276.05,68.03 278.87,86.33 274.2,101.58 C271.23,111.48 264.16,120.3 254.62,124.52 C239.61,131.24 219.85,127.76 209.67,114.34 C202.55,105.26 200.17,93.21 201.31,81.9 C202.22,72.1 206.35,62.37 213.76,55.75 C218.83,51.13 225.33,48.22 232.09,47.18" id="Fill-17" fill="#FFFFFF"></path>
            <path d="M807.43,47.63 C819.11,45 832.27,47.62 841.21,55.84 C853.7,67.13 856.44,86.1 851.81,101.69 C849.01,110.74 842.95,118.95 834.48,123.41 C826.45,127.87 816.84,128.64 807.92,127.02 C798.02,125.07 789.18,118.62 784.28,109.81 C777.64,97.93 776.99,83.12 781.57,70.41 C785.59,59.06 795.54,49.96 807.43,47.63" id="Fill-18" fill="#FFFFFF"></path>
            <path d="M913.66,47.86 C922.43,47.9 931.2,47.83 939.97,47.89 C945.33,47.95 951.05,49.03 955.08,52.84 C962.75,59.55 962.38,73.09 954.52,79.52 C950.82,82.67 945.86,83.96 941.07,83.95 C931.93,83.99 922.79,83.94 913.65,83.96 C913.65,71.93 913.62,59.89 913.66,47.86" id="Fill-19" fill="#FFFFFF"></path>
            <path d="M448.62,106.36 C451.64,98.12 459.36,93.02 466.63,88.85 C474.96,99.3 483.33,109.73 491.74,120.12 C487.18,126.24 480.6,130.95 473.11,132.66 C466.6,134.14 459.01,132.72 454.41,127.6 C449.32,122.01 445.79,113.84 448.62,106.36" id="Fill-20" fill="#FFFFFF"></path>
        </g>
    </g>
</svg>