<?xml version="1.0" encoding="utf-8"?>
<!-- Generator: Adobe Illustrator 17.0.0, SVG Export Plug-In . SVG Version: 6.00 Build 0)  -->
<!DOCTYPE svg PUBLIC "-//W3C//DTD SVG 1.1//EN" "http://www.w3.org/Graphics/SVG/1.1/DTD/svg11.dtd">
<svg version="1.1" id="Layer_1" xmlns="http://www.w3.org/2000/svg" xmlns:xlink="http://www.w3.org/1999/xlink" x="0px" y="0px"
	 width="678.068px" height="276.028px" viewBox="0 0 678.068 276.028" enable-background="new 0 0 678.068 276.028"
	 xml:space="preserve">
<path stroke="#000000" stroke-width="5" stroke-linejoin="round" stroke-miterlimit="10" d="M147.477,175.434l16.516-45.344h10.903
	l-21.806,57.306h-10.903l-19.97-46.475l-19.754,46.475H91.883L69.754,130.09h10.903l16.84,44.858l19.215-44.858h11.119
	L147.477,175.434z"/>
<path stroke="#000000" stroke-width="5" stroke-linejoin="round" stroke-miterlimit="10" d="M217.254,173.17l10.2-3.6
	c0.399,3.119,1.759,5.699,4.08,7.739c2.319,2.04,5.439,3.061,9.36,3.061c3.04,0,5.439-0.739,7.2-2.22
	c1.759-1.479,2.64-3.301,2.64-5.461c0-3.84-2.48-6.318-7.439-7.439l-9.84-2.16c-4.481-0.96-8-2.88-10.56-5.76
	c-2.561-2.88-3.84-6.36-3.84-10.44c0-4.959,2.02-9.24,6.06-12.84c4.039-3.6,8.859-5.4,14.46-5.4c3.679,0,6.96,0.54,9.84,1.62
	c2.88,1.08,5.118,2.501,6.72,4.26c1.6,1.761,2.799,3.401,3.6,4.92c0.799,1.521,1.399,3.081,1.801,4.68l-9.961,3.72
	c-0.161-0.96-0.44-1.899-0.84-2.82c-0.401-0.918-1.02-1.938-1.86-3.06c-0.84-1.119-2.061-2.019-3.66-2.7
	c-1.602-0.679-3.48-1.02-5.64-1.02c-2.801,0-5.1,0.761-6.9,2.28c-1.8,1.521-2.7,3.321-2.7,5.4c0,3.681,2.199,6,6.6,6.96l9.36,2.04
	c5.119,1.122,9.061,3.18,11.82,6.18c2.76,3,4.14,6.66,4.14,10.98c0,4.561-1.859,8.682-5.58,12.36c-3.72,3.681-8.9,5.52-15.54,5.52
	c-7.122,0-12.681-1.781-16.68-5.34C220.093,181.071,217.813,177.25,217.254,173.17z"/>
<path stroke="#000000" stroke-width="5" stroke-linejoin="round" stroke-miterlimit="10" d="M295.013,112.21v18.24h12.48v10.2
	h-12.48v30c0,2.721,0.619,4.721,1.86,6c1.239,1.28,3.3,1.92,6.18,1.92c1.681,0,3.159-0.16,4.44-0.48v9.6
	c-1.92,0.721-4.481,1.08-7.681,1.08c-4.961,0-8.88-1.439-11.76-4.319s-4.319-6.919-4.319-12.12v-31.68h-11.04v-10.2h3.119
	c2.959,0,5.18-0.819,6.66-2.46c1.479-1.639,2.221-3.78,2.221-6.42v-9.36H295.013z"/>
<path stroke="#000000" stroke-width="5" stroke-linejoin="round" stroke-miterlimit="10" d="M440.212,168.37l9.72,3.36
	c-1.68,5.36-4.8,9.74-9.36,13.14c-4.56,3.399-10.079,5.1-16.56,5.1c-8.081,0-14.94-2.778-20.58-8.34
	c-5.64-5.56-8.46-13.06-8.46-22.5c0-8.799,2.719-16.08,8.16-21.84c5.439-5.76,11.919-8.64,19.439-8.64
	c8.719,0,15.52,2.741,20.4,8.22c4.879,5.48,7.32,12.821,7.32,22.02c0,1.44-0.081,2.639-0.24,3.6h-43.44
	c0.079,5.12,1.78,9.32,5.101,12.6c3.318,3.281,7.419,4.92,12.3,4.92C432.251,180.01,437.65,176.131,440.212,168.37z M406.971,153.37
	h31.561c-0.162-4.32-1.602-7.86-4.32-10.62c-2.721-2.76-6.561-4.14-11.521-4.14c-4.48,0-8.159,1.46-11.04,4.38
	C408.771,145.911,407.212,149.371,406.971,153.37z"/>
<path stroke="#000000" stroke-width="5" stroke-linejoin="round" stroke-miterlimit="10" d="M499.73,129.85v12
	c-1.68-0.24-3.32-0.36-4.92-0.36c-10.56,0-15.84,5.921-15.84,17.76v28.92h-11.28v-57.72h11.04v10.08
	c3.52-7.359,9.279-11.04,17.28-11.04C497.29,129.49,498.531,129.61,499.73,129.85z"/>
<path stroke="#000000" stroke-width="5" stroke-linejoin="round" stroke-miterlimit="10" d="M546.769,129.85v12
	c-1.68-0.24-3.32-0.36-4.92-0.36c-10.56,0-15.84,5.921-15.84,17.76v28.92h-11.28v-57.72h11.04v10.08
	c3.52-7.359,9.279-11.04,17.28-11.04C544.329,129.49,545.57,129.61,546.769,129.85z"/>
<path stroke="#000000" stroke-width="5" stroke-linejoin="round" stroke-miterlimit="10" d="M577.967,212.29h-12.36l14.4-30.48
	l-24.84-51.36h12.96l18,39.84l17.28-39.84h12.119L577.967,212.29z"/>
<path fill="none" stroke="#000000" stroke-width="10" stroke-linecap="round" stroke-linejoin="round" stroke-miterlimit="10" d="
	M404.391,138.366"/>
<path fill="none" stroke="#603A26" stroke-width="4" stroke-miterlimit="10" d="M184.808,114.049c0,0,12.953,16.211,7.084,28.337"/>
<g>
	<path fill="#92B75C" d="M264.583,82.838c0.851,7.674-1.056,15.111-5.724,22.316c-4.665,7.199-10.715,12.045-18.153,14.535
		c-7.435,2.486-21.456,4.031-27.869,6.887c-24.892,11.084-19,2.272-8.73-30.256c2.349-7.439,4.189-12.63,9.021-20.088
		c4.669-7.205,13.867-10.626,21.323-12.917c7.46-2.289,14.133-1.526,20.019,2.288C260.362,69.42,263.731,75.164,264.583,82.838z"/>
	<path opacity="0.4" fill="#476D33" stroke="#476D33" stroke-width="4" stroke-miterlimit="10" d="M254.47,69.603
		c0,0-22.868,9.713-58.89,63.638"/>
</g>
<g>
	<circle fill="#9953C1" cx="180.532" cy="101.404" r="17.636"/>
	<path opacity="0.6" fill="#6D398E" d="M189.518,86.229c0,0-1.676,18.678-18.296,30.152c0,0,12.826,6.89,22.335-3.087
		s4.039-20.495,0-23.78C189.518,86.229,189.518,86.229,189.518,86.229z"/>
</g>
<path stroke="#000000" stroke-width="5" stroke-linejoin="round" stroke-miterlimit="10" d="M336.653,188.17h-11.16v-125h11.16
	v75.44c1.519-2.799,3.939-5.139,7.26-7.02c3.319-1.879,7.261-2.82,11.82-2.82c8.4,0,14.92,2.84,19.561,8.52
	c4.639,5.681,6.96,12.92,6.96,21.72c0,8.881-2.4,16.221-7.2,22.021c-4.8,5.801-11.36,8.699-19.68,8.699
	c-8.641,0-14.881-3.318-18.721-9.96V188.17z M366.053,174.01c3.12-3.76,4.68-8.76,4.68-15c0-6.24-1.541-11.179-4.62-14.82
	c-3.08-3.639-7.221-5.46-12.42-5.46c-5.04,0-9.161,1.841-12.359,5.52c-3.201,3.681-4.801,8.601-4.801,14.76
	c0,6.162,1.6,11.142,4.801,14.939c3.198,3.802,7.319,5.701,12.359,5.701C358.812,179.651,362.933,177.772,366.053,174.01z"/>
<rect x="189.295" y="130.45" stroke="#000000" stroke-width="5" stroke-linejoin="round" stroke-miterlimit="10" width="11.16" height="57.72"/>
</svg>
